<?xml version="1.0" encoding="UTF-8" standalone="no"?>
<!-- Generator: Adobe Illustrator 16.0.0, SVG Export Plug-In . SVG Version: 6.00 Build 0)  -->

<svg
   xmlns:dc="http://purl.org/dc/elements/1.1/"
   xmlns:cc="http://creativecommons.org/ns#"
   xmlns:rdf="http://www.w3.org/1999/02/22-rdf-syntax-ns#"
   xmlns:svg="http://www.w3.org/2000/svg"
   xmlns="http://www.w3.org/2000/svg"
   xmlns:sodipodi="http://sodipodi.sourceforge.net/DTD/sodipodi-0.dtd"
   xmlns:inkscape="http://www.inkscape.org/namespaces/inkscape"
   version="1.1"
   x="0px"
   y="0px"
   width="64px"
   height="64px"
   viewBox="0 0 64 64"
   enable-background="new 0 0 64 64"
   xml:space="preserve"
   id="svg2"
   inkscape:version="0.91 r13725"
   sodipodi:docname="comment-square.svg"><metadata
     id="metadata25"><rdf:RDF><cc:Work
         rdf:about=""><dc:format>image/svg+xml</dc:format><dc:type
           rdf:resource="http://purl.org/dc/dcmitype/StillImage" /></cc:Work></rdf:RDF></metadata><defs
     id="defs23" /><sodipodi:namedview
     pagecolor="#ffffff"
     bordercolor="#666666"
     borderopacity="1"
     objecttolerance="10"
     gridtolerance="10"
     guidetolerance="10"
     inkscape:pageopacity="0"
     inkscape:pageshadow="2"
     inkscape:window-width="760"
     inkscape:window-height="480"
     id="namedview21"
     showgrid="false"
     inkscape:zoom="3.6875"
     inkscape:cx="32"
     inkscape:cy="32"
     inkscape:window-x="0"
     inkscape:window-y="0"
     inkscape:window-maximized="0"
     inkscape:current-layer="svg2" /><g
     id="eye"
     style="fill:#ffffff"><path
       fill="#1D1D1B"
       d="M4.629,48.049c0.004,0,0.012,0,0.016,0c0.196,0.094,0.643,0.779,0.596,1.924l-0.419,9.881   c-0.059,1.418,0.276,2.516,0.995,3.264C6.365,63.686,7.102,64,7.895,64c1.019,0,2.033-0.498,3.021-1.48l12.247-12.217   c1.175-1.174,3.767-2.242,5.432-2.242h29.386c3.32,0,6.021-2.691,6.021-6V10.008c0-3.309-2.7-6.001-6.021-6.001H6.019   C2.699,4.007,0,6.699,0,10.008v32.053C0,45.418,2.059,48.049,4.629,48.049z M4.012,10.008c0-1.104,0.899-2,2.007-2h51.961   c1.108,0,2.008,0.896,2.008,2v32.053c0,1.104-0.899,2-2.008,2H28.594c-2.761,0-6.317,1.467-8.271,3.414L8.88,58.891l0.37-8.75   c0.078-1.891-0.509-3.635-1.618-4.785c-0.797-0.83-1.827-1.289-2.854-1.289c-0.008,0-0.016,0-0.023,0   c-0.212-0.08-0.743-0.795-0.743-2.006V10.008z"
       id="path5"
       style="fill:#ffffff" /></g><g
     id="comment" /><g
     id="map-marker" /><g
     id="earth" /><g
     id="heart" /><g
     id="twitter" /><g
     id="bucket" /><g
     id="paperclip" /><g
     id="undo" /><g
     id="redo" /><g
     id="chevron-left" /><g
     id="chevron-right" /><g
     id="cross" /><g
     id="search" /><g
     id="hamburger" /></svg>