<?xml version="1.0" encoding="UTF-8" standalone="no"?>
<!-- Generator: Adobe Illustrator 16.0.0, SVG Export Plug-In . SVG Version: 6.00 Build 0)  -->

<svg
   xmlns:dc="http://purl.org/dc/elements/1.1/"
   xmlns:cc="http://creativecommons.org/ns#"
   xmlns:rdf="http://www.w3.org/1999/02/22-rdf-syntax-ns#"
   xmlns:svg="http://www.w3.org/2000/svg"
   xmlns="http://www.w3.org/2000/svg"
   xmlns:sodipodi="http://sodipodi.sourceforge.net/DTD/sodipodi-0.dtd"
   xmlns:inkscape="http://www.inkscape.org/namespaces/inkscape"
   version="1.1"
   x="0px"
   y="0px"
   width="64px"
   height="64px"
   viewBox="0 0 64 64"
   enable-background="new 0 0 64 64"
   xml:space="preserve"
   id="svg2"
   inkscape:version="0.91 r13725"
   sodipodi:docname="youtube2.svg"><metadata
     id="metadata39"><rdf:RDF><cc:Work
         rdf:about=""><dc:format>image/svg+xml</dc:format><dc:type
           rdf:resource="http://purl.org/dc/dcmitype/StillImage" /><dc:title /></cc:Work></rdf:RDF></metadata><defs
     id="defs37" /><sodipodi:namedview
     pagecolor="#ffffff"
     bordercolor="#666666"
     borderopacity="1"
     objecttolerance="10"
     gridtolerance="10"
     guidetolerance="10"
     inkscape:pageopacity="0"
     inkscape:pageshadow="2"
     inkscape:window-width="640"
     inkscape:window-height="480"
     id="namedview35"
     showgrid="false"
     inkscape:zoom="3.6875"
     inkscape:cx="32"
     inkscape:cy="32"
     inkscape:window-x="10"
     inkscape:window-y="34"
     inkscape:window-maximized="0"
     inkscape:current-layer="svg2" /><g
     id="eye"
     style="fill:#d40000"><g
       id="g5"
       style="fill:#d40000"><path
         fill="#1D1D1B"
         d="M37.635,41.44c-0.542,0-1.088,0.257-1.635,0.79v10.999c0.547,0.544,1.093,0.806,1.635,0.806    c0.941,0,1.423-0.806,1.423-2.434v-7.698C39.059,42.271,38.576,41.44,37.635,41.44z"
         id="path7"
         style="fill:#d40000" /><path
         fill="#1D1D1B"
         d="M49.601,41.44c-1.093,0-1.642,0.831-1.642,2.502v1.671h3.274v-1.671    C51.234,42.271,50.687,41.44,49.601,41.44z"
         id="path9"
         style="fill:#d40000" /><g
         id="g11"
         style="fill:#d40000"><path
           fill="#1D1D1B"
           d="M56.396,29.049c-2.055-2.139-4.357-2.148-5.414-2.271c-7.556-0.54-18.889-0.54-18.889-0.54h-0.025     c0,0-11.333,0-18.896,0.54c-1.054,0.123-3.352,0.133-5.409,2.271c-1.618,1.632-2.147,5.327-2.147,5.327s-0.536,4.343-0.536,8.685     v4.073c0,4.341,0.536,8.686,0.536,8.686s0.529,3.695,2.147,5.321c2.057,2.139,4.753,2.072,5.952,2.295     c4.324,0.413,18.365,0.538,18.365,0.538s11.347-0.016,18.903-0.562c1.057-0.121,3.359-0.133,5.414-2.271     c1.619-1.626,2.147-5.321,2.147-5.321s0.536-4.345,0.536-8.686v-4.073c0-4.342-0.536-8.685-0.536-8.685     S58.015,30.681,56.396,29.049z M16.979,56.755h-3.642V35.953H9.486v-3.406h11.414v3.406h-3.92V56.755z M29.892,56.755h-3.278     v-1.969c-1.299,1.489-2.54,2.221-3.742,2.221c-1.054,0-1.781-0.432-2.112-1.346c-0.178-0.546-0.286-1.409-0.286-2.683V38.717     h3.275v13.28c0,0.765,0,1.164,0.024,1.27c0.083,0.507,0.336,0.769,0.771,0.769c0.658,0,1.341-0.507,2.069-1.533V38.717h3.278     V56.755z M42.331,51.346c0,1.663-0.11,2.866-0.331,3.631c-0.438,1.344-1.313,2.03-2.613,2.03c-1.168,0-2.294-0.647-3.387-1.999     v1.747h-3.277V32.547H36v7.905c1.056-1.299,2.179-1.956,3.387-1.956c1.299,0,2.174,0.688,2.613,2.036     c0.221,0.729,0.331,1.918,0.331,3.628V51.346z M54.51,48.33h-6.55v3.199c0,1.671,0.549,2.506,1.673,2.506     c0.806,0,1.275-0.44,1.463-1.311c0.029-0.178,0.073-0.908,0.073-2.219h3.341v0.479c0,1.051-0.043,1.776-0.071,2.106     c-0.108,0.723-0.368,1.378-0.766,1.955c-0.906,1.312-2.25,1.96-3.963,1.96c-1.711,0-3.014-0.618-3.96-1.853     c-0.696-0.902-1.051-2.326-1.051-4.241v-6.319c0-1.927,0.318-3.333,1.012-4.249c0.946-1.234,2.249-1.849,3.922-1.849     c1.643,0,2.947,0.614,3.863,1.849c0.685,0.916,1.015,2.322,1.015,4.249V48.33z"
           id="path13"
           style="fill:#d40000" /><path
           fill="#1D1D1B"
           d="M23.436,24.434v-9.908l4.412-14.552h-3.71l-2.503,9.605l-2.605-9.605h-3.863     c0.777,2.268,1.581,4.544,2.356,6.816c1.174,3.411,1.91,5.982,2.244,7.735v9.908H23.436z"
           id="path15"
           style="fill:#d40000" /><path
           fill="#1D1D1B"
           d="M32.047,24.685c1.656,0,2.942-0.624,3.858-1.864c0.692-0.91,1.029-2.346,1.029-4.287v-6.387     c0-1.945-0.337-3.367-1.029-4.289c-0.917-1.25-2.202-1.87-3.858-1.87c-1.654,0-2.943,0.62-3.854,1.87     c-0.707,0.922-1.034,2.344-1.034,4.289v6.387c0,1.941,0.327,3.377,1.034,4.287C29.104,24.061,30.393,24.685,32.047,24.685z      M30.466,11.486c0-1.686,0.514-2.529,1.581-2.529c1.062,0,1.573,0.844,1.573,2.529v7.669c0,1.687-0.511,2.53-1.573,2.53     c-1.067,0-1.581-0.844-1.581-2.53V11.486z"
           id="path17"
           style="fill:#d40000" /><path
           fill="#1D1D1B"
           d="M48.988,24.434V6.203h-3.308v13.935c-0.733,1.034-1.427,1.548-2.088,1.548     c-0.445,0-0.708-0.265-0.777-0.773c-0.042-0.109-0.042-0.51-0.042-1.285V6.203h-3.299v14.418c0,1.289,0.108,2.161,0.293,2.711     c0.332,0.92,1.068,1.353,2.133,1.353c1.204,0,2.46-0.732,3.781-2.24v1.989H48.988z"
           id="path19"
           style="fill:#d40000" /></g></g></g><g
     id="comment" /><g
     id="map-marker" /><g
     id="earth" /><g
     id="heart" /><g
     id="twitter" /><g
     id="bucket" /><g
     id="paperclip" /><g
     id="undo" /><g
     id="redo" /><g
     id="chevron-left" /><g
     id="chevron-right" /><g
     id="cross" /><g
     id="search" /><g
     id="hamburger" /></svg>