<?xml version="1.0" encoding="UTF-8" standalone="no"?>
<!-- Generator: Adobe Illustrator 16.0.0, SVG Export Plug-In . SVG Version: 6.00 Build 0)  -->

<svg
   xmlns:dc="http://purl.org/dc/elements/1.1/"
   xmlns:cc="http://creativecommons.org/ns#"
   xmlns:rdf="http://www.w3.org/1999/02/22-rdf-syntax-ns#"
   xmlns:svg="http://www.w3.org/2000/svg"
   xmlns="http://www.w3.org/2000/svg"
   xmlns:sodipodi="http://sodipodi.sourceforge.net/DTD/sodipodi-0.dtd"
   xmlns:inkscape="http://www.inkscape.org/namespaces/inkscape"
   version="1.1"
   x="0px"
   y="0px"
   width="64px"
   height="64px"
   viewBox="0 0 64 64"
   enable-background="new 0 0 64 64"
   xml:space="preserve"
   id="svg2"
   inkscape:version="0.91 r13725"
   sodipodi:docname="facebook2.svg"><metadata
     id="metadata25"><rdf:RDF><cc:Work
         rdf:about=""><dc:format>image/svg+xml</dc:format><dc:type
           rdf:resource="http://purl.org/dc/dcmitype/StillImage" /><dc:title></dc:title></cc:Work></rdf:RDF></metadata><defs
     id="defs23" /><sodipodi:namedview
     pagecolor="#ffffff"
     bordercolor="#666666"
     borderopacity="1"
     objecttolerance="10"
     gridtolerance="10"
     guidetolerance="10"
     inkscape:pageopacity="0"
     inkscape:pageshadow="2"
     inkscape:window-width="718"
     inkscape:window-height="847"
     id="namedview21"
     showgrid="false"
     inkscape:zoom="3.6875"
     inkscape:cx="28.880429"
     inkscape:cy="32"
     inkscape:window-x="720"
     inkscape:window-y="24"
     inkscape:window-maximized="0"
     inkscape:current-layer="svg2" /><g
     id="eye"
     style="fill:#0055ff;fill-opacity:1"><path
       fill="#1D1D1B"
       d="M50.25,2.012C49.993,1.93,43.884,0,37.614,0c-9.04,0-14.093,4.098-14.224,11.574v13.033H15.52   c-0.535,0-1.049,0.215-1.426,0.596c-0.375,0.383-0.582,0.898-0.574,1.434l0.176,11.881c0.016,1.094,0.906,1.971,2,1.971h7.695   v21.511c0,1.105,0.895,2,2,2h11.673c1.104,0,2-0.895,2-2V40.488h5.906c0.914,0,1.712-0.619,1.938-1.506l3.034-11.881   c0.153-0.598,0.021-1.232-0.358-1.721s-0.962-0.773-1.579-0.773h-8.945l-0.003-7.824c0.205-0.25,1.061-0.76,3.198-0.76   c1.813,0,4.132,0.359,6.888,1.072c0.599,0.148,1.236,0.023,1.725-0.357c0.489-0.377,0.775-0.961,0.775-1.58V3.916   C51.642,3.047,51.079,2.275,50.25,2.012z M47.642,12.643c-2.037-0.412-3.843-0.619-5.388-0.619c-6.849,0-7.18,4.156-7.194,4.455   v10.129c0,1.105,0.896,2,2,2h8.369l-2.013,7.881h-6.353c-1.104,0-2,0.895-2,2v21.511h-7.673V38.488c0-1.105-0.896-2-2-2h-7.725   l-0.117-7.881h7.842c1.104,0,2-0.895,2-2V11.609C27.448,8.342,28.571,4,37.614,4c3.964,0,7.979,0.893,10.027,1.43V12.643z"
       id="path5"
       style="fill:#0055ff;fill-opacity:1" /></g><g
     id="comment" /><g
     id="map-marker" /><g
     id="earth" /><g
     id="heart" /><g
     id="twitter" /><g
     id="bucket" /><g
     id="paperclip" /><g
     id="undo" /><g
     id="redo" /><g
     id="chevron-left" /><g
     id="chevron-right" /><g
     id="cross" /><g
     id="search" /><g
     id="hamburger" /></svg>