<?xml version="1.0" encoding="UTF-8" standalone="no"?>
<!-- Generator: Adobe Illustrator 16.0.0, SVG Export Plug-In . SVG Version: 6.00 Build 0)  -->

<svg
   xmlns:dc="http://purl.org/dc/elements/1.1/"
   xmlns:cc="http://creativecommons.org/ns#"
   xmlns:rdf="http://www.w3.org/1999/02/22-rdf-syntax-ns#"
   xmlns:svg="http://www.w3.org/2000/svg"
   xmlns="http://www.w3.org/2000/svg"
   xmlns:sodipodi="http://sodipodi.sourceforge.net/DTD/sodipodi-0.dtd"
   xmlns:inkscape="http://www.inkscape.org/namespaces/inkscape"
   version="1.1"
   x="0px"
   y="0px"
   width="64px"
   height="64px"
   viewBox="0 0 64 64"
   enable-background="new 0 0 64 64"
   xml:space="preserve"
   id="svg2"
   inkscape:version="0.91 r13725"
   sodipodi:docname="open.svg"><metadata
     id="metadata31"><rdf:RDF><cc:Work
         rdf:about=""><dc:format>image/svg+xml</dc:format><dc:type
           rdf:resource="http://purl.org/dc/dcmitype/StillImage" /><dc:title /></cc:Work></rdf:RDF></metadata><defs
     id="defs29" /><sodipodi:namedview
     pagecolor="#ffffff"
     bordercolor="#666666"
     borderopacity="1"
     objecttolerance="10"
     gridtolerance="10"
     guidetolerance="10"
     inkscape:pageopacity="0"
     inkscape:pageshadow="2"
     inkscape:window-width="715"
     inkscape:window-height="480"
     id="namedview27"
     showgrid="false"
     inkscape:zoom="3.6875"
     inkscape:cx="-16.135593"
     inkscape:cy="32"
     inkscape:window-x="10"
     inkscape:window-y="34"
     inkscape:window-maximized="0"
     inkscape:current-layer="svg2" /><g
     id="eye"
     style="fill:#63cc00;fill-opacity:1"><g
       id="g5"
       style="fill:#63cc00;fill-opacity:1"><path
         fill="#1D1D1B"
         d="M2.252,10.271h58.871c1.124,0,2.034-0.91,2.034-2.034c0-1.123-0.91-2.034-2.034-2.034H2.252    c-1.124,0-2.034,0.911-2.034,2.034C0.218,9.36,1.128,10.271,2.252,10.271z"
         id="path7"
         style="fill:#63cc00;fill-opacity:1" /><path
         fill="#1D1D1B"
         d="M61.123,30.015H2.252c-1.124,0-2.034,0.912-2.034,2.035c0,1.122,0.91,2.034,2.034,2.034h58.871    c1.124,0,2.034-0.912,2.034-2.034C63.157,30.927,62.247,30.015,61.123,30.015z"
         id="path9"
         style="fill:#63cc00;fill-opacity:1" /><path
         fill="#1D1D1B"
         d="M61.123,53.876H2.252c-1.124,0-2.034,0.91-2.034,2.034c0,1.123,0.91,2.034,2.034,2.034h58.871    c1.124,0,2.034-0.911,2.034-2.034C63.157,54.786,62.247,53.876,61.123,53.876z"
         id="path11"
         style="fill:#63cc00;fill-opacity:1" /></g></g><g
     id="comment" /><g
     id="map-marker" /><g
     id="earth" /><g
     id="heart" /><g
     id="twitter" /><g
     id="bucket" /><g
     id="paperclip" /><g
     id="undo" /><g
     id="redo" /><g
     id="chevron-left" /><g
     id="chevron-right" /><g
     id="cross" /><g
     id="search" /><g
     id="hamburger" /></svg>