<?xml version="1.0" encoding="utf-8"?>
<!-- Generator: Adobe Illustrator 19.1.0, SVG Export Plug-In . SVG Version: 6.00 Build 0)  -->
<!DOCTYPE svg PUBLIC "-//W3C//DTD SVG 1.1//EN" "http://www.w3.org/Graphics/SVG/1.1/DTD/svg11.dtd">
<svg version="1.1" id="Camada_1" xmlns="http://www.w3.org/2000/svg" xmlns:xlink="http://www.w3.org/1999/xlink" x="0px" y="0px"
	 width="600px" height="1238px" viewBox="0 0 600 1238" enable-background="new 0 0 600 1238" xml:space="preserve">
<g>
	<line fill="none" stroke="#B3B3B3" stroke-width="2" stroke-miterlimit="10" x1="339" y1="1129" x2="359" y2="1129"/>
	<rect x="335" y="1134.9" fill="none" stroke="#CB4F39" stroke-width="2" stroke-miterlimit="10" width="20" height="14"/>
	<polyline fill="none" stroke="#CB4F39" stroke-width="2" stroke-miterlimit="10" points="339,1134.9 339,1124.9 359,1124.9 
		359,1138.9 355,1138.9 	"/>
	<rect x="350" y="1138" fill="#B3B3B3" width="2" height="2"/>
	<rect x="338" y="1144" fill="#B3B3B3" width="4" height="2"/>
	<rect x="344" y="1144" fill="#B3B3B3" width="6" height="2"/>
</g>
<g>
	<rect x="336" y="1035" fill="none" stroke="#CB4F39" stroke-width="2" stroke-miterlimit="10" width="10" height="10"/>
	<rect x="350" y="1035" fill="none" stroke="#B3B3B3" stroke-width="2" stroke-miterlimit="10" width="10" height="10"/>
	<rect x="336" y="1049" fill="none" stroke="#B3B3B3" stroke-width="2" stroke-miterlimit="10" width="10" height="10"/>
	<rect x="350" y="1049" fill="none" stroke="#B3B3B3" stroke-width="2" stroke-miterlimit="10" width="10" height="10"/>
</g>
<g>
	<rect x="445" y="1035" fill="none" stroke="#B3B3B3" stroke-width="2" stroke-miterlimit="10" width="10" height="10"/>
	<rect x="431" y="1035" fill="none" stroke="#CB4F39" stroke-width="2" stroke-miterlimit="10" width="10" height="24"/>
	<rect x="445" y="1049" fill="none" stroke="#B3B3B3" stroke-width="2" stroke-miterlimit="10" width="10" height="10"/>
</g>
<g>
	<rect x="526" y="1035" fill="none" stroke="#CB4F39" stroke-width="2" stroke-miterlimit="10" width="10" height="24"/>
	<rect x="540" y="1035" fill="none" stroke="#B3B3B3" stroke-width="2" stroke-miterlimit="10" width="10" height="24"/>
</g>
<g>
	<rect x="149" y="1035" fill="none" stroke="#CB4F39" stroke-width="2" stroke-miterlimit="10" width="18" height="24"/>
	<circle fill="#B3B3B3" cx="158" cy="1055" r="1"/>
</g>
<g>
	<circle fill="#B3B3B3" cx="62" cy="1054" r="1"/>
	<rect x="54" y="1036" fill="none" stroke="#CB4F39" stroke-width="2" stroke-miterlimit="10" width="16" height="22"/>
</g>
<g>
	<rect x="251" y="1054" fill="none" stroke="#B3B3B3" stroke-width="2" stroke-miterlimit="10" width="4" height="5"/>
	<rect x="241" y="1035" fill="none" stroke="#CB4F39" stroke-width="2" stroke-miterlimit="10" width="24" height="19"/>
	<line fill="none" stroke="#B3B3B3" stroke-width="2" stroke-miterlimit="10" x1="247" y1="1059" x2="259" y2="1059"/>
</g>
<g>
	<line fill="none" stroke="#B3B3B3" stroke-width="2" stroke-miterlimit="10" x1="244" y1="952" x2="261" y2="952"/>
	<polyline fill="none" stroke="#CB4F39" stroke-width="2" stroke-miterlimit="10" points="253,944 261,952 253,960 	"/>
</g>
<g>
	<line fill="none" stroke="#B3B3B3" stroke-width="2" stroke-miterlimit="10" x1="357" y1="952" x2="340" y2="952"/>
	<polyline fill="none" stroke="#CB4F39" stroke-width="2" stroke-miterlimit="10" points="348,944 340,952 348,960 	"/>
</g>
<g>
	<circle fill="none" stroke="#CB4F39" stroke-width="2" stroke-miterlimit="10" cx="62" cy="952" r="12"/>
	<line fill="none" stroke="#B3B3B3" stroke-width="2" stroke-miterlimit="10" x1="62" y1="948" x2="62" y2="956"/>
	<line fill="none" stroke="#B3B3B3" stroke-width="2" stroke-miterlimit="10" x1="66" y1="952" x2="58" y2="952"/>
</g>
<g>
	<circle fill="none" stroke="#CB4F39" stroke-width="2" stroke-miterlimit="10" cx="157" cy="952" r="12"/>
	<line fill="none" stroke="#B3B3B3" stroke-width="2" stroke-miterlimit="10" x1="161" y1="952" x2="153" y2="952"/>
</g>
<g>
	<rect x="431" y="956" fill="none" stroke="#B3B3B3" stroke-width="2" stroke-miterlimit="10" width="4" height="7"/>
	<rect x="451" y="956" fill="none" stroke="#B3B3B3" stroke-width="2" stroke-miterlimit="10" width="4" height="7"/>
	<path fill="none" stroke="#CB4F39" stroke-width="2" stroke-miterlimit="10" d="M431,964v-11.4c0-6.6,5.4-12,12-12s12,5.4,12,12
		V964"/>
</g>
<g>
	<rect x="526" y="940" fill="none" stroke="#CB4F39" stroke-width="2" stroke-miterlimit="10" width="24" height="24"/>
	<polygon fill="none" stroke="#B3B3B3" stroke-width="2" stroke-miterlimit="10" points="535,949.7 535,955.7 541,952.7 	"/>
</g>
<g>
	<polygon fill="none" stroke="#CB4F39" stroke-width="2" stroke-miterlimit="10" points="258,851 258,847 248,847 248,851 241,851 
		241,867 265,867 265,851 	"/>
	<circle fill="none" stroke="#B3B3B3" stroke-width="2" stroke-miterlimit="10" cx="253" cy="859" r="3"/>
</g>
<g>
	<circle fill="none" stroke="#B3B3B3" stroke-width="2" stroke-miterlimit="10" cx="440" cy="852" r="3"/>
	<polyline fill="none" stroke="#B3B3B3" stroke-width="2" stroke-miterlimit="10" points="430.8,864.2 435.9,859.1 440.9,864.2 
		449.2,856 454.8,861.5 	"/>
	<rect x="431" y="845" fill="none" stroke="#CB4F39" stroke-width="2" stroke-miterlimit="10" width="24" height="24"/>
</g>
<g>
	<rect x="150" y="858" fill="none" stroke="#B3B3B3" stroke-width="2" stroke-miterlimit="10" width="16" height="11"/>
	<polygon fill="none" stroke="#CB4F39" stroke-width="2" stroke-miterlimit="10" points="170,869 146,869 146,845 167.1,845 
		170,848.2 	"/>
	<rect x="152" y="845" fill="none" stroke="#B3B3B3" stroke-width="2" stroke-miterlimit="10" width="12" height="9"/>
	<line fill="none" stroke="#B3B3B3" stroke-width="2" stroke-miterlimit="10" x1="156" y1="848" x2="156" y2="851"/>
</g>
<g>
	<circle fill="#B3B3B3" cx="354" cy="849" r="1"/>
	<rect x="336" y="861" fill="none" stroke="#CB4F39" stroke-width="2" stroke-miterlimit="10" width="24" height="8"/>
	<line fill="none" stroke="#B3B3B3" stroke-width="2" stroke-miterlimit="10" x1="339" y1="865" x2="357" y2="865"/>
	<circle fill="none" stroke="#B3B3B3" stroke-width="2" stroke-miterlimit="10" cx="348" cy="853" r="3"/>
	<rect x="338" y="845" fill="none" stroke="#CB4F39" stroke-width="2" stroke-miterlimit="10" width="20" height="16"/>
</g>
<g>
	<line fill="none" stroke="#B3B3B3" stroke-width="2" stroke-miterlimit="10" x1="538" y1="849" x2="547" y2="849"/>
	<line fill="none" stroke="#B3B3B3" stroke-width="2" stroke-miterlimit="10" x1="538" y1="854" x2="547" y2="854"/>
	<line fill="none" stroke="#B3B3B3" stroke-width="2" stroke-miterlimit="10" x1="538" y1="859" x2="544" y2="859"/>
	<line fill="none" stroke="#B3B3B3" stroke-width="2" stroke-miterlimit="10" x1="536.9" y1="864.1" x2="531.9" y2="869.1"/>
	<line fill="none" stroke="#B3B3B3" stroke-width="2" stroke-miterlimit="10" x1="538.9" y1="864.1" x2="543.9" y2="869.1"/>
	<rect x="526" y="845" fill="none" stroke="#CB4F39" stroke-width="2" stroke-miterlimit="10" width="24" height="19"/>
	<rect x="530" y="849" fill="none" stroke="#B3B3B3" stroke-width="2" stroke-miterlimit="10" width="5" height="5"/>
</g>
<g>
	<rect x="52" y="851" fill="none" stroke="#CB4F39" stroke-width="2" stroke-miterlimit="10" width="20" height="19"/>
	<rect x="50" y="844" fill="none" stroke="#B3B3B3" stroke-width="2" stroke-miterlimit="10" width="24" height="7"/>
	<line fill="none" stroke="#B3B3B3" stroke-width="2" stroke-miterlimit="10" x1="59" y1="855" x2="65" y2="855"/>
</g>
<g>
	<rect x="50" y="750" fill="none" stroke="#CB4F39" stroke-width="2" stroke-miterlimit="10" width="14" height="14"/>
	<polyline fill="none" stroke="#B3B3B3" stroke-width="2" stroke-miterlimit="10" points="60,763 60,760 74,760 74,774 60,774 
		60,765 	"/>
</g>
<g>
	<polyline fill="none" stroke="#B3B3B3" stroke-width="2" stroke-miterlimit="10" points="167,753 149,762 167,771 	"/>
	<circle fill="#FFFFFF" stroke="#CB4F39" stroke-width="2" stroke-miterlimit="10" cx="149" cy="762" r="3"/>
	<circle fill="#FFFFFF" stroke="#CB4F39" stroke-width="2" stroke-miterlimit="10" cx="167" cy="753" r="3"/>
	<circle fill="#FFFFFF" stroke="#CB4F39" stroke-width="2" stroke-miterlimit="10" cx="167" cy="771" r="3"/>
</g>
<g>
	<polyline fill="none" stroke="#CB4F39" stroke-width="2" stroke-miterlimit="10" points="529,755 529,774 547,774 547,755 	"/>
	<line fill="none" stroke="#B3B3B3" stroke-width="2" stroke-miterlimit="10" x1="525" y1="755" x2="551" y2="755"/>
	<rect x="534" y="750" fill="none" stroke="#B3B3B3" stroke-width="2" stroke-miterlimit="10" width="8" height="5"/>
</g>
<g>
	<polyline fill="none" stroke="#B3B3B3" stroke-width="2" stroke-miterlimit="10" points="451,762 443,762 443,754 	"/>
	<circle fill="none" stroke="#CB4F39" stroke-width="2" stroke-miterlimit="10" cx="443" cy="762" r="12"/>
</g>
<g>
	<line fill="none" stroke="#B3B3B3" stroke-width="2" stroke-miterlimit="10" x1="344" y1="760" x2="352" y2="760"/>
	<line fill="none" stroke="#B3B3B3" stroke-width="2" stroke-miterlimit="10" x1="339" y1="772" x2="357" y2="772"/>
	<polygon fill="none" stroke="#CB4F39" stroke-width="2" stroke-miterlimit="10" points="348,762.1 339,757.1 339,750 357,750 
		357,757.1 	"/>
	<polygon fill="none" stroke="#CB4F39" stroke-width="2" stroke-miterlimit="10" points="348,762.1 339,767 339,774 357,774 
		357,767 	"/>
</g>
<g>
	<polyline fill="none" stroke="#B3B3B3" stroke-width="2" stroke-miterlimit="10" points="265,757 265,774 246,774 246,768 	"/>
	<rect x="243" y="750" fill="none" stroke="#B3B3B3" stroke-width="2" stroke-miterlimit="10" width="6" height="8"/>
	<rect x="241" y="758" fill="none" stroke="#CB4F39" stroke-width="2" stroke-miterlimit="10" width="10" height="9"/>
</g>
<g>
	<polygon fill="none" stroke="#B3B3B3" stroke-width="2" stroke-miterlimit="10" points="146,662.9 146,659 170,659 170,662.9 
		158,666.6 	"/>
	<rect x="146" y="659" fill="none" stroke="#CB4F39" stroke-width="2" stroke-miterlimit="10" width="24" height="16"/>
</g>
<g>
	<polygon fill="none" stroke="#CB4F39" stroke-width="2" stroke-miterlimit="10" points="265,657 241,657 241,673 254,673 259,677 
		259,673 265,673 	"/>
	<circle fill="#B3B3B3" cx="249" cy="665" r="1"/>
	<circle fill="#B3B3B3" cx="253" cy="665" r="1"/>
	<circle fill="#B3B3B3" cx="257" cy="665" r="1"/>
</g>
<g>
	<line fill="none" stroke="#CB4F39" stroke-width="2" stroke-miterlimit="10" x1="75" y1="659" x2="49" y2="659"/>
	<line fill="none" stroke="#CB4F39" stroke-width="2" stroke-miterlimit="10" x1="75" y1="667" x2="49" y2="667"/>
	<line fill="none" stroke="#CB4F39" stroke-width="2" stroke-miterlimit="10" x1="75" y1="675" x2="49" y2="675"/>
</g>
<g>
	<rect x="439" y="655" fill="none" stroke="#B3B3B3" stroke-width="2" stroke-miterlimit="10" width="8" height="5"/>
	<rect x="434" y="660" fill="none" stroke="#CB4F39" stroke-width="2" stroke-miterlimit="10" width="18" height="19"/>
</g>
<g>
	<rect x="534" y="655" fill="none" stroke="#B3B3B3" stroke-width="2" stroke-miterlimit="10" width="8" height="5"/>
	<rect x="526" y="660" fill="none" stroke="#CB4F39" stroke-width="2" stroke-miterlimit="10" width="24" height="19"/>
</g>
<g>
	<polyline fill="none" stroke="#CB4F39" stroke-width="2" stroke-miterlimit="10" points="341,676 341,655 359,655 359,679 337,679 
		337,662 340,662 	"/>
	<line fill="none" stroke="#B3B3B3" stroke-width="2" stroke-miterlimit="10" x1="344" y1="668" x2="352" y2="668"/>
	<line fill="none" stroke="#B3B3B3" stroke-width="2" stroke-miterlimit="10" x1="344" y1="672" x2="356" y2="672"/>
	<rect x="345" y="659" fill="none" stroke="#B3B3B3" stroke-width="2" stroke-miterlimit="10" width="5" height="5"/>
</g>
<g>
	<line fill="none" stroke="#B3B3B3" stroke-width="2" stroke-miterlimit="10" x1="240" y1="580" x2="242" y2="580"/>
	<line fill="none" stroke="#B3B3B3" stroke-width="2" stroke-miterlimit="10" x1="240" y1="572" x2="242" y2="572"/>
	<line fill="none" stroke="#B3B3B3" stroke-width="2" stroke-miterlimit="10" x1="240" y1="564" x2="242" y2="564"/>
	<line fill="none" stroke="#CB4F39" stroke-width="2" stroke-miterlimit="10" x1="246" y1="564" x2="266" y2="564"/>
	<line fill="none" stroke="#CB4F39" stroke-width="2" stroke-miterlimit="10" x1="246" y1="572" x2="266" y2="572"/>
	<line fill="none" stroke="#CB4F39" stroke-width="2" stroke-miterlimit="10" x1="246" y1="580" x2="266" y2="580"/>
</g>
<g>
	<polyline fill="none" stroke="#B3B3B3" stroke-width="2" stroke-miterlimit="10" points="66,575 66,573 70,573 70,574.3 66,579.3 
		66,580 71,580 	"/>
	<rect x="50" y="564" fill="none" stroke="#CB4F39" stroke-width="2" stroke-miterlimit="10" width="12" height="16"/>
	<polyline fill="none" stroke="#B3B3B3" stroke-width="2" stroke-miterlimit="10" points="54.3,570.6 55.8,569 57,569 57,576 	"/>
	<line fill="none" stroke="#B3B3B3" stroke-width="2" stroke-miterlimit="10" x1="69" y1="565" x2="69" y2="569"/>
	<rect x="62" y="564" fill="none" stroke="#CB4F39" stroke-width="2" stroke-miterlimit="10" width="12" height="16"/>
</g>
<g>
	<path fill="none" stroke="#CB4F39" stroke-width="2" stroke-miterlimit="10" d="M146,578c0-6.6,5.4-12,12-12s12,5.4,12,12"/>
	<line fill="none" stroke="#B3B3B3" stroke-width="2" stroke-miterlimit="10" x1="158.2" y1="578.1" x2="149.7" y2="569.6"/>
</g>
<g>
	<circle fill="none" stroke="#B3B3B3" stroke-width="2" stroke-miterlimit="10" cx="448" cy="572" r="3"/>
	<path fill="none" stroke="#CB4F39" stroke-width="2" stroke-miterlimit="10" d="M438,579c-3.9,0-7-3.1-7-7s3.1-7,7-7h10
		c3.9,0,7,3.1,7,7s-3.1,7-7,7H438z"/>
</g>
<g>
	<path fill="none" stroke="#CB4F39" stroke-width="2" stroke-miterlimit="10" d="M359.9,572.1c0,6.6-5.4,12-12,12s-12-5.4-12-12
		s5.4-12,12-12"/>
	<path fill="none" stroke="#B3B3B3" stroke-width="2" stroke-miterlimit="10" d="M348,560.1c7,0,11.9,5.9,11.9,11.9H348V560.1z"/>
</g>
<g>
	<circle fill="#B3B3B3" cx="530" cy="572" r="1"/>
	<circle fill="#B3B3B3" cx="546" cy="572" r="1"/>
	<line fill="none" stroke="#B3B3B3" stroke-width="2" stroke-miterlimit="10" x1="538" y1="568" x2="538" y2="576"/>
	<line fill="none" stroke="#CB4F39" stroke-width="2" stroke-miterlimit="10" x1="538" y1="568" x2="538" y2="572"/>
	<rect x="526" y="560" fill="none" stroke="#CB4F39" stroke-width="2" stroke-miterlimit="10" width="24" height="24"/>
</g>
<g>
	<rect x="155" y="467" fill="none" stroke="#B3B3B3" stroke-width="2" stroke-miterlimit="10" width="9" height="4"/>
	<polygon fill="none" stroke="#CB4F39" stroke-width="2" stroke-miterlimit="10" points="155,471 155,467 146,467 146,487 170,487 
		170,471 	"/>
</g>
<g>
	<polyline fill="none" stroke="#CB4F39" stroke-width="2" stroke-miterlimit="10" points="431,479 431,484 455,484 455,479 	"/>
	<line fill="none" stroke="#B3B3B3" stroke-width="2" stroke-miterlimit="10" x1="443" y1="468" x2="443" y2="479"/>
	<polyline fill="none" stroke="#B3B3B3" stroke-width="2" stroke-miterlimit="10" points="448,474 443,479 438,474 	"/>
</g>
<g>
	<polyline fill="none" stroke="#CB4F39" stroke-width="2" stroke-miterlimit="10" points="526,479 526,484 550,484 550,479 	"/>
	<line fill="none" stroke="#B3B3B3" stroke-width="2" stroke-miterlimit="10" x1="538" y1="480" x2="538" y2="469"/>
	<polyline fill="none" stroke="#B3B3B3" stroke-width="2" stroke-miterlimit="10" points="533,474 538,469 543,474 	"/>
</g>
<g>
	<circle fill="#B3B3B3" cx="247" cy="471" r="1"/>
	<polygon fill="none" stroke="#CB4F39" stroke-width="2" stroke-miterlimit="10" points="241.9,476.2 253.9,488.2 263.9,478.2 
		251.9,466.1 250.9,465 241,465 241,475.2 	"/>
</g>
<g>
	<circle fill="none" stroke="#B3B3B3" stroke-width="2" stroke-miterlimit="10" cx="348" cy="473" r="3"/>
	<path fill="none" stroke="#CB4F39" stroke-width="2" stroke-miterlimit="10" d="M356,473c0,5-8,15-8,15s-8-10-8-15c0-4.4,3.6-8,8-8
		S356,468.6,356,473z"/>
</g>
<g>
	<rect x="53" y="465" fill="none" stroke="#CB4F39" stroke-width="2" stroke-miterlimit="10" width="18" height="24"/>
	<rect x="59" y="465" fill="none" stroke="#B3B3B3" stroke-width="2" stroke-miterlimit="10" width="6" height="4"/>
</g>
<g>
	<circle fill="none" stroke="#B3B3B3" stroke-width="2" stroke-miterlimit="10" cx="245" cy="378" r="3"/>
	<circle fill="none" stroke="#B3B3B3" stroke-width="2" stroke-miterlimit="10" cx="259" cy="372" r="3"/>
	<polyline fill="none" stroke="#CB4F39" stroke-width="2" stroke-miterlimit="10" points="240,393 240,385 250,385 250,393 	"/>
	<polyline fill="none" stroke="#CB4F39" stroke-width="2" stroke-miterlimit="10" points="254,387 254,379 264,379 264,387 	"/>
</g>
<g>
	<polygon fill="none" stroke="#CB4F39" stroke-width="2" stroke-miterlimit="10" points="529,368 529,392 547,392 547,374 541,368 	
		"/>
	<polyline fill="none" stroke="#CB4F39" stroke-width="2" stroke-miterlimit="10" points="547,374 541,374 541,368 	"/>
	<line fill="none" stroke="#B3B3B3" stroke-width="2" stroke-miterlimit="10" x1="532" y1="378" x2="540" y2="378"/>
	<line fill="none" stroke="#B3B3B3" stroke-width="2" stroke-miterlimit="10" x1="532" y1="382" x2="544" y2="382"/>
	<line fill="none" stroke="#B3B3B3" stroke-width="2" stroke-miterlimit="10" x1="532" y1="386" x2="542" y2="386"/>
</g>
<g>
	<polyline fill="none" stroke="#CB4F39" stroke-width="2" stroke-miterlimit="10" points="149,393 149,386 167,386 167,393 	"/>
	<circle fill="none" stroke="#B3B3B3" stroke-width="2" stroke-miterlimit="10" cx="158" cy="375" r="7"/>
</g>
<g>
	<polyline fill="none" stroke="#CB4F39" stroke-width="2" stroke-miterlimit="10" points="339,377.1 339,392.1 357,392.1 357,377.1 
			"/>
	<polyline fill="none" stroke="#B3B3B3" stroke-width="2" stroke-miterlimit="10" points="336,380.1 348,369.1 360,380.1 	"/>
	<line fill="none" stroke="#B3B3B3" stroke-width="2" stroke-miterlimit="10" x1="357" y1="377.1" x2="357" y2="373.1"/>
</g>
<g>
	<rect x="431" y="371" fill="none" stroke="#CB4F39" stroke-width="2" stroke-miterlimit="10" width="24" height="21"/>
	<line fill="none" stroke="#B3B3B3" stroke-width="2" stroke-miterlimit="10" x1="437" y1="367" x2="437" y2="372"/>
	<line fill="none" stroke="#B3B3B3" stroke-width="2" stroke-miterlimit="10" x1="449" y1="367" x2="449" y2="372"/>
	<rect x="438" y="377" fill="#B3B3B3" width="2" height="2"/>
	<rect x="442" y="377" fill="#B3B3B3" width="2" height="2"/>
	<rect x="446" y="377" fill="#B3B3B3" width="2" height="2"/>
	<rect x="450" y="377" fill="#B3B3B3" width="2" height="2"/>
	<rect x="434" y="381" fill="#B3B3B3" width="2" height="2"/>
	<rect x="438" y="381" fill="#B3B3B3" width="2" height="2"/>
	<rect x="442" y="381" fill="#B3B3B3" width="2" height="2"/>
	<rect x="446" y="381" fill="#CB4F39" width="2" height="2"/>
	<rect x="450" y="381" fill="#B3B3B3" width="2" height="2"/>
	<rect x="434" y="385" fill="#B3B3B3" width="2" height="2"/>
	<rect x="438" y="385" fill="#B3B3B3" width="2" height="2"/>
	<rect x="442" y="385" fill="#B3B3B3" width="2" height="2"/>
	<rect x="446" y="385" fill="#B3B3B3" width="2" height="2"/>
</g>
<g>
	<polyline fill="none" stroke="#CB4F39" stroke-width="2" stroke-miterlimit="10" points="53,394 53,387 71,387 71,394 	"/>
	<line fill="none" stroke="#CB4F39" stroke-width="2" stroke-miterlimit="10" x1="70" y1="368" x2="70" y2="376"/>
	<path fill="none" stroke="#B3B3B3" stroke-width="2" stroke-miterlimit="10" d="M64.3,369.3c-0.6-0.2-1.3-0.3-2-0.3
		c-3.9,0-7,3.1-7,7c0,3.9,3.1,7,7,7c3.2,0,5.8-2.1,6.7-5"/>
	<line fill="none" stroke="#CB4F39" stroke-width="2" stroke-miterlimit="10" x1="74" y1="372" x2="66" y2="372"/>
</g>
<g>
	<line fill="none" stroke="#B3B3B3" stroke-width="2" stroke-miterlimit="10" x1="54" y1="274" x2="54" y2="300"/>
	<line fill="none" stroke="#B3B3B3" stroke-width="2" stroke-miterlimit="10" x1="62" y1="274" x2="62" y2="300"/>
	<line fill="none" stroke="#B3B3B3" stroke-width="2" stroke-miterlimit="10" x1="70" y1="274" x2="70" y2="300"/>
	<line fill="none" stroke="#CB4F39" stroke-width="2" stroke-miterlimit="10" x1="54" y1="292" x2="54" y2="300"/>
	<line fill="none" stroke="#CB4F39" stroke-width="2" stroke-miterlimit="10" x1="62" y1="282" x2="62" y2="300"/>
	<line fill="none" stroke="#CB4F39" stroke-width="2" stroke-miterlimit="10" x1="70" y1="278" x2="70" y2="300"/>
</g>
<g>
	<g>
		<path fill="#CB4F39" d="M157,280.1c4.6,0,8.8,4.7,10.5,6.9c-1.7,2.2-5.9,6.9-10.5,6.9c-4.6,0-8.8-4.7-10.5-6.9
			C148.2,284.9,152.4,280.1,157,280.1 M157,278.1c-7.2,0-13,8.9-13,8.9s5.8,8.9,13,8.9s13-8.9,13-8.9S164.2,278.1,157,278.1
			L157,278.1z"/>
	</g>
	<circle fill="none" stroke="#B3B3B3" stroke-width="2" stroke-miterlimit="10" cx="157" cy="287" r="3"/>
</g>
<g>
	<line fill="none" stroke="#B3B3B3" stroke-width="2" stroke-miterlimit="10" x1="265" y1="279" x2="239" y2="279"/>
	<line fill="none" stroke="#B3B3B3" stroke-width="2" stroke-miterlimit="10" x1="265" y1="287" x2="239" y2="287"/>
	<line fill="none" stroke="#B3B3B3" stroke-width="2" stroke-miterlimit="10" x1="265" y1="295" x2="239" y2="295"/>
	<line fill="none" stroke="#CB4F39" stroke-width="2" stroke-miterlimit="10" x1="244" y1="289" x2="244" y2="285"/>
	<line fill="none" stroke="#CB4F39" stroke-width="2" stroke-miterlimit="10" x1="252" y1="297" x2="252" y2="293"/>
	<line fill="none" stroke="#CB4F39" stroke-width="2" stroke-miterlimit="10" x1="258" y1="281" x2="258" y2="277"/>
</g>
<g>
	<circle fill="none" stroke="#CB4F39" stroke-width="2" stroke-miterlimit="10" cx="443" cy="287" r="8"/>
	<g>
		<line fill="none" stroke="#B3B3B3" stroke-width="2" stroke-miterlimit="10" x1="443" y1="292" x2="443" y2="286"/>
		<line fill="none" stroke="#B3B3B3" stroke-width="2" stroke-miterlimit="10" x1="443" y1="284" x2="443" y2="282"/>
	</g>
</g>
<g>
	<line fill="none" stroke="#B3B3B3" stroke-width="2" stroke-miterlimit="10" x1="353" y1="292" x2="357" y2="296"/>
	<circle fill="none" stroke="#CB4F39" stroke-width="2" stroke-miterlimit="10" cx="347" cy="286" r="8"/>
</g>
<g>
	<path fill="none" stroke="#CB4F39" stroke-width="2" stroke-miterlimit="10" d="M534,281.1c-2.4,1.4-4,4-4,6.9c0,4.4,3.6,8,8,8
		s8-3.6,8-8c0-3-1.6-5.5-4-6.9"/>
	<line fill="none" stroke="#B3B3B3" stroke-width="2" stroke-miterlimit="10" x1="538" y1="277" x2="538" y2="285"/>
</g>
<circle fill="none" stroke="#CB4F39" stroke-width="2" stroke-miterlimit="10" cx="443" cy="1137" r="12"/>
<circle fill="none" stroke="#CB4F39" stroke-width="2" stroke-miterlimit="10" cx="443" cy="1137" r="8"/>
<circle fill="none" stroke="#B3B3B3" stroke-width="2" stroke-miterlimit="10" cx="443" cy="1137" r="3"/>
<g>
	<circle fill="none" stroke="#CB4F39" stroke-width="2" stroke-miterlimit="10" cx="538" cy="1137" r="12"/>
	<line fill="none" stroke="#B3B3B3" stroke-width="2" stroke-miterlimit="10" x1="538" y1="1137" x2="533" y2="1142"/>
	<line fill="none" stroke="#CB4F39" stroke-width="2" stroke-miterlimit="10" x1="543" y1="1132" x2="538" y2="1137"/>
</g>
<rect x="146" y="1125" fill="none" stroke="#CB4F39" stroke-width="2" stroke-miterlimit="10" width="24" height="24"/>
<polyline fill="none" stroke="#B3B3B3" stroke-width="2" stroke-miterlimit="10" points="149,1139 154.5,1144.5 167,1132 "/>
<rect x="241" y="1125" fill="none" stroke="#CB4F39" stroke-width="2" stroke-miterlimit="10" width="24" height="24"/>
<line fill="none" stroke="#B3B3B3" stroke-width="2" stroke-miterlimit="10" x1="247" y1="1143" x2="259" y2="1131"/>
<line fill="none" stroke="#B3B3B3" stroke-width="2" stroke-miterlimit="10" x1="247" y1="1131" x2="259" y2="1143"/>
<g>
	<rect x="50" y="1133" fill="none" stroke="#CB4F39" stroke-width="2" stroke-miterlimit="10" width="24" height="16"/>
	<rect x="50" y="1125" fill="none" stroke="#B3B3B3" stroke-width="2" stroke-miterlimit="10" width="24" height="8"/>
	<circle fill="#B3B3B3" cx="70" cy="1129" r="1"/>
	<circle fill="#B3B3B3" cx="66" cy="1129" r="1"/>
	<circle fill="#B3B3B3" cx="62" cy="1129" r="1"/>
</g>
<g>
	<path fill="#CB4F39" d="M111.4,88.3c-0.9,0-1.7-0.1-2.4-0.4c-0.7-0.3-1.2-0.7-1.7-1.1c-0.3-0.3-0.5-0.6-0.7-0.9s-0.4-0.7-0.6-1.2
		c-0.2-0.4-0.3-0.9-0.4-1.5c-0.1-0.6-0.1-1.2-0.1-2v0c0-1.1,0.1-2.2,0.4-3.1c0.3-1,0.7-1.8,1.2-2.5c0.5-0.7,1.2-1.3,2-1.7
		c0.8-0.4,1.7-0.6,2.7-0.6c1,0,1.8,0.1,2.5,0.4c0.7,0.3,1.4,0.7,2,1.2l-1.4,2c-0.5-0.4-1-0.7-1.5-0.9c-0.5-0.2-1-0.3-1.7-0.3
		c-0.6,0-1.2,0.2-1.6,0.5c-0.4,0.3-0.8,0.7-1.1,1.1c-0.3,0.5-0.5,1-0.6,1.5c-0.1,0.6-0.2,1.1-0.2,1.6c0.4-0.4,0.9-0.8,1.5-1.1
		c0.6-0.3,1.2-0.4,2-0.4c0.7,0,1.4,0.1,2,0.3c0.6,0.2,1.2,0.5,1.6,0.9c0.5,0.4,0.8,0.9,1.1,1.5c0.3,0.6,0.4,1.2,0.4,2v0
		c0,0.7-0.1,1.4-0.4,2c-0.3,0.6-0.7,1.1-1.2,1.6c-0.5,0.4-1.1,0.8-1.7,1C112.9,88.1,112.2,88.3,111.4,88.3z M111.3,86
		c0.9,0,1.6-0.3,2.2-0.8s0.8-1.1,0.8-1.9v0c0-0.7-0.3-1.4-0.8-1.8c-0.5-0.5-1.3-0.7-2.2-0.7c-0.5,0-0.9,0.1-1.2,0.2
		c-0.4,0.1-0.7,0.3-0.9,0.6s-0.5,0.5-0.6,0.8c-0.1,0.3-0.2,0.6-0.2,1v0c0,0.8,0.3,1.4,0.8,1.9C109.7,85.8,110.4,86,111.3,86z"/>
	<path fill="#CB4F39" d="M125.7,88.3c-1,0-1.8-0.2-2.6-0.6c-0.8-0.4-1.5-0.9-2-1.6c-0.6-0.7-1-1.5-1.3-2.4c-0.3-0.9-0.5-1.9-0.5-3v0
		c0-1,0.2-2,0.5-3c0.3-0.9,0.7-1.7,1.3-2.4c0.6-0.7,1.2-1.2,2-1.6s1.7-0.6,2.6-0.6s1.8,0.2,2.6,0.6c0.8,0.4,1.5,0.9,2,1.6
		c0.6,0.7,1,1.5,1.3,2.4c0.3,0.9,0.5,1.9,0.5,3v0c0,1.1-0.2,2-0.5,3c-0.3,0.9-0.7,1.7-1.3,2.4c-0.6,0.7-1.2,1.2-2,1.6
		C127.5,88.1,126.6,88.3,125.7,88.3z M125.7,85.9c0.6,0,1.1-0.1,1.5-0.4c0.5-0.3,0.8-0.6,1.2-1.1c0.3-0.5,0.6-1,0.7-1.7
		c0.2-0.6,0.3-1.3,0.3-2v0c0-0.7-0.1-1.4-0.3-2c-0.2-0.6-0.4-1.2-0.8-1.7c-0.3-0.5-0.7-0.9-1.2-1.1c-0.5-0.3-1-0.4-1.5-0.4
		c-0.6,0-1.1,0.1-1.5,0.4c-0.5,0.3-0.8,0.6-1.2,1.1c-0.3,0.5-0.6,1-0.7,1.7c-0.2,0.6-0.3,1.3-0.3,2v0c0,0.7,0.1,1.4,0.3,2
		c0.2,0.6,0.4,1.2,0.8,1.7c0.3,0.5,0.7,0.9,1.2,1.1C124.6,85.8,125.1,85.9,125.7,85.9z"/>
	<path fill="#B3B3B3" d="M141.5,73.3h6.6c1.7,0,3,0.4,3.8,1.3c0.7,0.7,1,1.5,1,2.4v0c0,0.4-0.1,0.8-0.2,1.2
		c-0.1,0.3-0.3,0.6-0.5,0.9c-0.2,0.3-0.4,0.5-0.7,0.7c-0.3,0.2-0.5,0.4-0.8,0.5c0.4,0.2,0.8,0.3,1.2,0.5s0.7,0.4,0.9,0.7
		c0.3,0.3,0.5,0.6,0.6,1s0.2,0.8,0.2,1.3v0c0,0.7-0.1,1.2-0.4,1.7c-0.3,0.5-0.6,0.9-1.1,1.3c-0.5,0.3-1.1,0.6-1.7,0.8
		c-0.7,0.2-1.4,0.3-2.2,0.3h-6.8V73.3z M150.3,77.5c0-0.6-0.2-1-0.7-1.4c-0.4-0.3-1.1-0.5-1.9-0.5H144v3.9h3.5c0.8,0,1.5-0.2,2-0.5
		C150.1,78.7,150.3,78.2,150.3,77.5L150.3,77.5z M151.1,83.7c0-0.6-0.2-1.1-0.7-1.5c-0.5-0.3-1.3-0.5-2.3-0.5H144v4h4.3
		c0.9,0,1.6-0.2,2.1-0.5S151.1,84.4,151.1,83.7L151.1,83.7z"/>
	<path fill="#B3B3B3" d="M156.8,73.3h2.6V88h-2.6V73.3z"/>
	<path fill="#CB4F39" d="M170.1,88.3c-1.1,0-2.1-0.2-3-0.6s-1.7-0.9-2.4-1.6c-0.7-0.7-1.2-1.5-1.6-2.4c-0.4-0.9-0.6-1.9-0.6-3v0
		c0-1,0.2-2,0.6-3s0.9-1.7,1.6-2.4c0.7-0.7,1.5-1.2,2.4-1.6c0.9-0.4,1.9-0.6,3.1-0.6c0.7,0,1.3,0.1,1.8,0.2c0.6,0.1,1.1,0.3,1.5,0.5
		c0.5,0.2,0.9,0.4,1.3,0.7c0.4,0.3,0.8,0.6,1.1,0.9l-1.7,1.9c-0.6-0.5-1.2-1-1.9-1.3c-0.7-0.3-1.4-0.5-2.2-0.5
		c-0.7,0-1.3,0.1-1.9,0.4c-0.6,0.3-1.1,0.6-1.5,1.1c-0.4,0.5-0.8,1-1,1.7c-0.2,0.6-0.4,1.3-0.4,2v0c0,0.7,0.1,1.4,0.4,2
		c0.2,0.6,0.6,1.2,1,1.7c0.4,0.5,0.9,0.8,1.5,1.1c0.6,0.3,1.2,0.4,1.9,0.4c0.9,0,1.7-0.2,2.3-0.5s1.3-0.8,1.9-1.4l1.7,1.7
		c-0.4,0.4-0.8,0.8-1.2,1.1c-0.4,0.3-0.9,0.6-1.3,0.8c-0.5,0.2-1,0.4-1.6,0.5C171.4,88.2,170.8,88.3,170.1,88.3z"/>
	<path fill="#CB4F39" d="M185.8,88.3c-1.1,0-2.2-0.2-3.1-0.6c-0.9-0.4-1.7-0.9-2.4-1.6c-0.7-0.7-1.2-1.5-1.6-2.4s-0.6-1.9-0.6-2.9v0
		c0-1,0.2-2,0.6-2.9s0.9-1.7,1.6-2.4c0.7-0.7,1.5-1.2,2.4-1.6c0.9-0.4,2-0.6,3.1-0.6c1.1,0,2.2,0.2,3.1,0.6c0.9,0.4,1.7,0.9,2.4,1.6
		c0.7,0.7,1.2,1.5,1.6,2.4s0.6,1.9,0.6,2.9v0c0,1-0.2,2-0.6,2.9s-0.9,1.7-1.6,2.4c-0.7,0.7-1.5,1.2-2.4,1.6
		C188,88,186.9,88.3,185.8,88.3z M185.9,85.9c0.7,0,1.4-0.1,2-0.4c0.6-0.3,1.1-0.6,1.6-1.1c0.4-0.5,0.8-1,1-1.6
		c0.2-0.6,0.4-1.3,0.4-2v0c0-0.7-0.1-1.4-0.4-2c-0.2-0.6-0.6-1.2-1-1.7s-1-0.8-1.6-1.1c-0.6-0.3-1.3-0.4-2-0.4s-1.4,0.1-2,0.4
		c-0.6,0.3-1.1,0.6-1.6,1.1c-0.4,0.5-0.8,1-1,1.7c-0.2,0.6-0.4,1.3-0.4,2v0c0,0.7,0.1,1.4,0.4,2c0.2,0.6,0.6,1.2,1,1.7
		c0.4,0.5,1,0.9,1.6,1.1C184.5,85.7,185.1,85.9,185.9,85.9z"/>
	<path fill="#CB4F39" d="M196.6,73.3h2.6v12.3h7.7V88h-10.3V73.3z"/>
	<path fill="#CB4F39" d="M215.8,88.3c-1.1,0-2.2-0.2-3.1-0.6c-0.9-0.4-1.7-0.9-2.4-1.6c-0.7-0.7-1.2-1.5-1.6-2.4s-0.6-1.9-0.6-2.9v0
		c0-1,0.2-2,0.6-2.9s0.9-1.7,1.6-2.4c0.7-0.7,1.5-1.2,2.4-1.6c0.9-0.4,2-0.6,3.1-0.6c1.1,0,2.2,0.2,3.1,0.6c0.9,0.4,1.7,0.9,2.4,1.6
		c0.7,0.7,1.2,1.5,1.6,2.4s0.6,1.9,0.6,2.9v0c0,1-0.2,2-0.6,2.9s-0.9,1.7-1.6,2.4c-0.7,0.7-1.5,1.2-2.4,1.6
		C218,88,217,88.3,215.8,88.3z M215.9,85.9c0.7,0,1.4-0.1,2-0.4c0.6-0.3,1.1-0.6,1.6-1.1c0.4-0.5,0.8-1,1-1.6c0.2-0.6,0.4-1.3,0.4-2
		v0c0-0.7-0.1-1.4-0.4-2c-0.2-0.6-0.6-1.2-1-1.7s-1-0.8-1.6-1.1c-0.6-0.3-1.3-0.4-2-0.4s-1.4,0.1-2,0.4c-0.6,0.3-1.1,0.6-1.6,1.1
		c-0.4,0.5-0.8,1-1,1.7c-0.2,0.6-0.4,1.3-0.4,2v0c0,0.7,0.1,1.4,0.4,2c0.2,0.6,0.6,1.2,1,1.7c0.4,0.5,1,0.9,1.6,1.1
		C214.5,85.7,215.1,85.9,215.9,85.9z"/>
	<path fill="#CB4F39" d="M226.7,73.3h6.6c0.9,0,1.7,0.1,2.5,0.4c0.7,0.3,1.3,0.6,1.8,1.1c0.4,0.4,0.7,0.9,0.9,1.4
		c0.2,0.5,0.3,1.1,0.3,1.8v0c0,1.2-0.3,2.2-1,2.9c-0.7,0.7-1.5,1.2-2.5,1.5l4,5.6h-3.1l-3.6-5.1h-3.2V88h-2.6V73.3z M233,80.6
		c0.9,0,1.7-0.2,2.2-0.7c0.5-0.4,0.8-1,0.8-1.8v0c0-0.8-0.3-1.4-0.8-1.8c-0.5-0.4-1.3-0.6-2.2-0.6h-3.8v4.9H233z"/>
	<path fill="#CB4F39" d="M241.8,73.3h10.9v2.3h-8.3v3.8h7.4v2.3h-7.4v3.9h8.4V88h-11V73.3z"/>
	<path fill="#CB4F39" d="M255.9,73.3h5.5c1.1,0,2.2,0.2,3.2,0.6c1,0.4,1.8,0.9,2.5,1.5c0.7,0.7,1.2,1.4,1.6,2.3
		c0.4,0.9,0.6,1.9,0.6,2.9v0c0,1-0.2,2-0.6,2.9c-0.4,0.9-0.9,1.7-1.6,2.3c-0.7,0.7-1.5,1.2-2.5,1.6c-1,0.4-2,0.6-3.2,0.6h-5.5V73.3z
		 M258.5,75.7v10h2.9c0.8,0,1.5-0.1,2.1-0.4c0.6-0.2,1.2-0.6,1.6-1s0.8-1,1-1.6c0.2-0.6,0.4-1.3,0.4-2v0c0-0.7-0.1-1.4-0.4-2
		c-0.2-0.6-0.6-1.1-1-1.6c-0.4-0.4-1-0.8-1.6-1c-0.6-0.3-1.3-0.4-2.1-0.4H258.5z"/>
	<path fill="#CB4F39" d="M278.8,73.3h2.6V88h-2.6V73.3z"/>
	<path fill="#CB4F39" d="M292.1,88.3c-1.1,0-2.1-0.2-3-0.6s-1.7-0.9-2.4-1.6c-0.7-0.7-1.2-1.5-1.6-2.4c-0.4-0.9-0.6-1.9-0.6-3v0
		c0-1,0.2-2,0.6-3s0.9-1.7,1.6-2.4c0.7-0.7,1.5-1.2,2.4-1.6c0.9-0.4,1.9-0.6,3.1-0.6c0.7,0,1.3,0.1,1.8,0.2c0.6,0.1,1.1,0.3,1.5,0.5
		c0.5,0.2,0.9,0.4,1.3,0.7c0.4,0.3,0.8,0.6,1.1,0.9l-1.7,1.9c-0.6-0.5-1.2-1-1.9-1.3c-0.7-0.3-1.4-0.5-2.2-0.5
		c-0.7,0-1.3,0.1-1.9,0.4c-0.6,0.3-1.1,0.6-1.5,1.1c-0.4,0.5-0.8,1-1,1.7c-0.2,0.6-0.4,1.3-0.4,2v0c0,0.7,0.1,1.4,0.4,2
		c0.2,0.6,0.6,1.2,1,1.7c0.4,0.5,0.9,0.8,1.5,1.1c0.6,0.3,1.2,0.4,1.9,0.4c0.9,0,1.7-0.2,2.3-0.5s1.3-0.8,1.9-1.4l1.7,1.7
		c-0.4,0.4-0.8,0.8-1.2,1.1c-0.4,0.3-0.9,0.6-1.3,0.8c-0.5,0.2-1,0.4-1.6,0.5C293.4,88.2,292.8,88.3,292.1,88.3z"/>
	<path fill="#CB4F39" d="M307.8,88.3c-1.1,0-2.2-0.2-3.1-0.6c-0.9-0.4-1.7-0.9-2.4-1.6c-0.7-0.7-1.2-1.5-1.6-2.4
		c-0.4-0.9-0.6-1.9-0.6-2.9v0c0-1,0.2-2,0.6-2.9c0.4-0.9,0.9-1.7,1.6-2.4c0.7-0.7,1.5-1.2,2.4-1.6c0.9-0.4,2-0.6,3.1-0.6
		c1.1,0,2.2,0.2,3.1,0.6s1.7,0.9,2.4,1.6c0.7,0.7,1.2,1.5,1.6,2.4s0.6,1.9,0.6,2.9v0c0,1-0.2,2-0.6,2.9s-0.9,1.7-1.6,2.4
		c-0.7,0.7-1.5,1.2-2.4,1.6C310,88,308.9,88.3,307.8,88.3z M307.8,85.9c0.7,0,1.4-0.1,2-0.4c0.6-0.3,1.1-0.6,1.6-1.1
		c0.4-0.5,0.8-1,1-1.6c0.2-0.6,0.4-1.3,0.4-2v0c0-0.7-0.1-1.4-0.4-2c-0.2-0.6-0.6-1.2-1-1.7c-0.4-0.5-1-0.8-1.6-1.1
		c-0.6-0.3-1.3-0.4-2-0.4c-0.7,0-1.4,0.1-2,0.4c-0.6,0.3-1.1,0.6-1.6,1.1c-0.4,0.5-0.8,1-1,1.7c-0.2,0.6-0.4,1.3-0.4,2v0
		c0,0.7,0.1,1.4,0.4,2c0.2,0.6,0.6,1.2,1,1.7c0.4,0.5,1,0.9,1.6,1.1C306.4,85.7,307.1,85.9,307.8,85.9z"/>
	<path fill="#CB4F39" d="M318.6,73.3h2.4l7.9,10.2V73.3h2.5V88h-2.2l-8.1-10.5V88h-2.5V73.3z"/>
	<path fill="#CB4F39" d="M340.4,88.2c-1.1,0-2.2-0.2-3.3-0.6c-1-0.4-2-1-2.9-1.8l1.6-1.8c0.7,0.6,1.4,1.1,2.2,1.4
		c0.7,0.3,1.6,0.5,2.5,0.5c0.8,0,1.4-0.2,1.9-0.5c0.5-0.3,0.7-0.8,0.7-1.3v0c0-0.3,0-0.5-0.1-0.7c-0.1-0.2-0.3-0.4-0.5-0.6
		c-0.2-0.2-0.6-0.3-1-0.5c-0.4-0.2-1-0.3-1.7-0.5c-0.8-0.2-1.5-0.4-2.1-0.6c-0.6-0.2-1.1-0.5-1.5-0.8s-0.7-0.7-0.9-1.2
		c-0.2-0.5-0.3-1.1-0.3-1.7v0c0-0.6,0.1-1.2,0.4-1.7s0.6-1,1-1.3c0.4-0.4,1-0.7,1.6-0.9c0.6-0.2,1.3-0.3,2-0.3c1.1,0,2,0.2,2.9,0.5
		c0.9,0.3,1.7,0.8,2.4,1.4l-1.4,2c-0.7-0.5-1.3-0.9-2-1.1c-0.7-0.3-1.3-0.4-2-0.4c-0.8,0-1.3,0.2-1.8,0.5c-0.4,0.3-0.6,0.7-0.6,1.2
		v0c0,0.3,0,0.5,0.1,0.7c0.1,0.2,0.3,0.4,0.5,0.6c0.3,0.2,0.6,0.3,1.1,0.5c0.4,0.2,1,0.3,1.7,0.5c0.8,0.2,1.4,0.4,2,0.7
		c0.6,0.2,1.1,0.5,1.5,0.9c0.4,0.3,0.7,0.7,0.9,1.2c0.2,0.5,0.3,1,0.3,1.6v0c0,0.7-0.1,1.3-0.4,1.8s-0.6,1-1.1,1.4
		c-0.5,0.4-1,0.7-1.7,0.9C341.8,88.1,341.1,88.2,340.4,88.2z"/>
	<path fill="#CB4F39" d="M361.8,88.3c-1.1,0-2.1-0.2-3-0.6s-1.7-0.9-2.4-1.6c-0.7-0.7-1.2-1.5-1.6-2.4c-0.4-0.9-0.6-1.9-0.6-3v0
		c0-1,0.2-2,0.6-3s0.9-1.7,1.6-2.4c0.7-0.7,1.5-1.2,2.4-1.6c0.9-0.4,1.9-0.6,3.1-0.6c0.7,0,1.3,0.1,1.8,0.2s1.1,0.3,1.5,0.5
		s0.9,0.4,1.3,0.7c0.4,0.3,0.8,0.6,1.1,0.9l-1.7,1.9c-0.6-0.5-1.2-1-1.9-1.3c-0.7-0.3-1.4-0.5-2.2-0.5c-0.7,0-1.3,0.1-1.9,0.4
		c-0.6,0.3-1.1,0.6-1.5,1.1c-0.4,0.5-0.8,1-1,1.7c-0.2,0.6-0.4,1.3-0.4,2v0c0,0.7,0.1,1.4,0.4,2c0.2,0.6,0.6,1.2,1,1.7
		c0.4,0.5,0.9,0.8,1.5,1.1c0.6,0.3,1.2,0.4,1.9,0.4c0.9,0,1.7-0.2,2.3-0.5s1.3-0.8,1.9-1.4l1.7,1.7c-0.4,0.4-0.8,0.8-1.2,1.1
		s-0.9,0.6-1.3,0.8c-0.5,0.2-1,0.4-1.6,0.5C363.1,88.2,362.5,88.3,361.8,88.3z"/>
	<path fill="#CB4F39" d="M377.5,88.3c-1.1,0-2.2-0.2-3.1-0.6c-0.9-0.4-1.7-0.9-2.4-1.6c-0.7-0.7-1.2-1.5-1.6-2.4
		c-0.4-0.9-0.6-1.9-0.6-2.9v0c0-1,0.2-2,0.6-2.9c0.4-0.9,0.9-1.7,1.6-2.4c0.7-0.7,1.5-1.2,2.4-1.6c0.9-0.4,2-0.6,3.1-0.6
		c1.1,0,2.2,0.2,3.1,0.6c0.9,0.4,1.7,0.9,2.4,1.6c0.7,0.7,1.2,1.5,1.6,2.4s0.6,1.9,0.6,2.9v0c0,1-0.2,2-0.6,2.9s-0.9,1.7-1.6,2.4
		c-0.7,0.7-1.5,1.2-2.4,1.6S378.6,88.3,377.5,88.3z M377.5,85.9c0.7,0,1.4-0.1,2-0.4c0.6-0.3,1.1-0.6,1.6-1.1c0.4-0.5,0.8-1,1-1.6
		c0.2-0.6,0.4-1.3,0.4-2v0c0-0.7-0.1-1.4-0.4-2c-0.2-0.6-0.6-1.2-1-1.7c-0.4-0.5-1-0.8-1.6-1.1c-0.6-0.3-1.3-0.4-2-0.4
		c-0.7,0-1.4,0.1-2,0.4c-0.6,0.3-1.1,0.6-1.6,1.1s-0.8,1-1,1.7s-0.4,1.3-0.4,2v0c0,0.7,0.1,1.4,0.4,2s0.6,1.2,1,1.7
		c0.4,0.5,1,0.9,1.6,1.1C376.1,85.7,376.8,85.9,377.5,85.9z"/>
	<path fill="#CB4F39" d="M388.3,73.3h2.6v12.3h7.7V88h-10.3V73.3z"/>
	<path fill="#CB4F39" d="M401.3,73.3h2.6v12.3h7.7V88h-10.3V73.3z"/>
	<path fill="#CB4F39" d="M414.3,73.3h10.9v2.3h-8.3v3.8h7.4v2.3h-7.4v3.9h8.4V88h-11V73.3z"/>
	<path fill="#CB4F39" d="M435.2,88.3c-1.1,0-2.1-0.2-3-0.6c-0.9-0.4-1.7-0.9-2.4-1.6s-1.2-1.5-1.6-2.4c-0.4-0.9-0.6-1.9-0.6-3v0
		c0-1,0.2-2,0.6-3c0.4-0.9,0.9-1.7,1.6-2.4c0.7-0.7,1.5-1.2,2.4-1.6s1.9-0.6,3.1-0.6c0.7,0,1.3,0.1,1.8,0.2s1.1,0.3,1.5,0.5
		s0.9,0.4,1.3,0.7c0.4,0.3,0.8,0.6,1.1,0.9l-1.7,1.9c-0.6-0.5-1.2-1-1.9-1.3c-0.7-0.3-1.4-0.5-2.2-0.5c-0.7,0-1.3,0.1-1.9,0.4
		c-0.6,0.3-1.1,0.6-1.5,1.1s-0.8,1-1,1.7s-0.4,1.3-0.4,2v0c0,0.7,0.1,1.4,0.4,2s0.6,1.2,1,1.7c0.4,0.5,0.9,0.8,1.5,1.1
		c0.6,0.3,1.2,0.4,1.9,0.4c0.9,0,1.7-0.2,2.3-0.5c0.6-0.3,1.3-0.8,1.9-1.4l1.7,1.7c-0.4,0.4-0.8,0.8-1.2,1.1s-0.9,0.6-1.3,0.8
		c-0.5,0.2-1,0.4-1.6,0.5C436.5,88.2,435.9,88.3,435.2,88.3z"/>
	<path fill="#CB4F39" d="M447.5,75.7h-4.7v-2.4h11.9v2.4h-4.7V88h-2.6V75.7z"/>
	<path fill="#CB4F39" d="M457.6,73.3h2.6V88h-2.6V73.3z"/>
	<path fill="#CB4F39" d="M471.2,88.3c-1.1,0-2.2-0.2-3.1-0.6c-0.9-0.4-1.7-0.9-2.4-1.6c-0.7-0.7-1.2-1.5-1.6-2.4s-0.6-1.9-0.6-2.9v0
		c0-1,0.2-2,0.6-2.9s0.9-1.7,1.6-2.4c0.7-0.7,1.5-1.2,2.4-1.6c0.9-0.4,2-0.6,3.1-0.6c1.1,0,2.2,0.2,3.1,0.6c0.9,0.4,1.7,0.9,2.4,1.6
		c0.7,0.7,1.2,1.5,1.6,2.4s0.6,1.9,0.6,2.9v0c0,1-0.2,2-0.6,2.9s-0.9,1.7-1.6,2.4c-0.7,0.7-1.5,1.2-2.4,1.6
		C473.3,88,472.3,88.3,471.2,88.3z M471.2,85.9c0.7,0,1.4-0.1,2-0.4c0.6-0.3,1.1-0.6,1.6-1.1c0.4-0.5,0.8-1,1-1.6s0.4-1.3,0.4-2v0
		c0-0.7-0.1-1.4-0.4-2s-0.6-1.2-1-1.7c-0.4-0.5-1-0.8-1.6-1.1c-0.6-0.3-1.3-0.4-2-0.4c-0.7,0-1.4,0.1-2,0.4
		c-0.6,0.3-1.1,0.6-1.6,1.1c-0.4,0.5-0.8,1-1,1.7s-0.4,1.3-0.4,2v0c0,0.7,0.1,1.4,0.4,2s0.6,1.2,1,1.7c0.4,0.5,1,0.9,1.6,1.1
		C469.8,85.7,470.5,85.9,471.2,85.9z"/>
	<path fill="#CB4F39" d="M482,73.3h2.4l7.9,10.2V73.3h2.5V88h-2.2l-8.1-10.5V88H482V73.3z"/>
</g>
<g>
	<path fill="#B3B3B3" d="M261.4,110.1h2.8v2.9h-2.8V110.1z"/>
	<path fill="#B3B3B3" d="M273.8,103.3h10.9v2.4h-8.4v4h7.4v2.4h-7.4v6h-2.6V103.3z"/>
	<path fill="#B3B3B3" d="M287.6,103.3h6.6c0.9,0,1.7,0.1,2.5,0.4c0.7,0.3,1.3,0.6,1.8,1.1c0.4,0.4,0.7,0.9,0.9,1.4
		c0.2,0.5,0.3,1.1,0.3,1.8v0c0,1.2-0.3,2.2-1,2.9c-0.7,0.7-1.5,1.2-2.5,1.5l4,5.6H297l-3.6-5.1h-3.2v5.1h-2.6V103.3z M294,110.6
		c0.9,0,1.7-0.2,2.2-0.7c0.5-0.4,0.8-1,0.8-1.8v0c0-0.8-0.3-1.4-0.8-1.8c-0.5-0.4-1.3-0.6-2.2-0.6h-3.8v4.9H294z"/>
	<path fill="#B3B3B3" d="M302.8,103.3h10.9v2.3h-8.3v3.8h7.4v2.3h-7.4v3.9h8.4v2.3h-11V103.3z"/>
	<path fill="#B3B3B3" d="M316.9,103.3h10.9v2.3h-8.3v3.8h7.4v2.3h-7.4v3.9h8.4v2.3h-11V103.3z"/>
	<path fill="#B3B3B3" d="M336.8,110.1h2.8v2.9h-2.8V110.1z"/>
</g>
<g>
	<path fill="#B3B3B3" d="M229.1,168.2c-0.4,0-0.7,0-1.1-0.1c-0.3-0.1-0.6-0.2-0.9-0.4s-0.5-0.3-0.7-0.6s-0.4-0.4-0.6-0.7v1.6h-1.2
		v-11.7h1.2v5.1c0.2-0.2,0.4-0.5,0.6-0.7s0.4-0.4,0.7-0.6c0.3-0.2,0.5-0.3,0.9-0.4c0.3-0.1,0.7-0.2,1-0.2c0.5,0,1,0.1,1.4,0.3
		c0.5,0.2,0.9,0.5,1.3,0.8c0.4,0.4,0.7,0.8,0.9,1.3s0.3,1.1,0.3,1.8v0c0,0.7-0.1,1.3-0.3,1.8s-0.5,1-0.9,1.4
		c-0.4,0.4-0.8,0.7-1.3,0.8C230.1,168.1,229.6,168.2,229.1,168.2z M228.9,167.1c0.4,0,0.8-0.1,1.1-0.2c0.4-0.1,0.7-0.4,0.9-0.6
		s0.5-0.6,0.6-1c0.2-0.4,0.2-0.8,0.2-1.3v0c0-0.5-0.1-0.9-0.2-1.3c-0.2-0.4-0.4-0.7-0.6-1c-0.3-0.3-0.6-0.5-0.9-0.6
		c-0.4-0.1-0.7-0.2-1.1-0.2c-0.4,0-0.8,0.1-1.1,0.2s-0.7,0.4-1,0.7c-0.3,0.3-0.5,0.6-0.7,1c-0.2,0.4-0.2,0.8-0.2,1.3v0
		c0,0.5,0.1,0.9,0.2,1.3c0.2,0.4,0.4,0.7,0.7,1c0.3,0.3,0.6,0.5,1,0.6C228.1,167,228.5,167.1,228.9,167.1z"/>
	<path fill="#B3B3B3" d="M241.1,159.7h1.3l-3.5,8.5c-0.4,0.9-0.7,1.5-1.2,1.8s-1,0.5-1.6,0.5c-0.3,0-0.7,0-0.9-0.1s-0.6-0.2-0.8-0.3
		l0.4-1c0.2,0.1,0.4,0.2,0.6,0.2c0.2,0,0.4,0.1,0.7,0.1c0.4,0,0.7-0.1,0.9-0.3c0.3-0.2,0.5-0.6,0.8-1.2l-3.8-8.2h1.4l3,6.9
		L241.1,159.7z"/>
	<path fill="#B3B3B3" d="M254.3,168.2c-0.9,0-1.7-0.1-2.4-0.4c-0.7-0.3-1.3-0.7-1.8-1.2c-0.5-0.5-0.9-1.1-1.1-1.8
		c-0.3-0.7-0.4-1.4-0.4-2.2v0c0-0.8,0.1-1.5,0.4-2.2s0.7-1.3,1.1-1.8c0.5-0.5,1.1-1,1.8-1.3s1.5-0.5,2.3-0.5c0.5,0,0.9,0,1.3,0.1
		c0.4,0.1,0.8,0.2,1.1,0.3c0.3,0.1,0.7,0.3,0.9,0.5c0.3,0.2,0.6,0.4,0.9,0.6l-0.8,1c-0.2-0.2-0.4-0.4-0.7-0.5
		c-0.2-0.2-0.5-0.3-0.8-0.4c-0.3-0.1-0.6-0.2-0.9-0.3s-0.7-0.1-1.1-0.1c-0.6,0-1.2,0.1-1.7,0.4c-0.5,0.2-1,0.6-1.3,1
		c-0.4,0.4-0.7,0.9-0.9,1.5c-0.2,0.6-0.3,1.1-0.3,1.8v0c0,0.7,0.1,1.3,0.3,1.9c0.2,0.6,0.5,1.1,0.9,1.5c0.4,0.4,0.8,0.7,1.4,1
		c0.5,0.2,1.2,0.4,1.8,0.4c0.6,0,1.2-0.1,1.8-0.3c0.6-0.2,1-0.5,1.4-0.8v-2.8h-3.4V162h4.6v4.5c-0.5,0.5-1.2,0.9-1.9,1.2
		C256.1,168,255.2,168.2,254.3,168.2z"/>
	<path fill="#B3B3B3" d="M264.5,168.2c-0.5,0-0.9-0.1-1.3-0.2c-0.4-0.2-0.7-0.4-1-0.7c-0.3-0.3-0.5-0.6-0.6-1s-0.2-0.9-0.2-1.3v-5.1
		h1.2v4.8c0,0.8,0.2,1.4,0.6,1.8c0.4,0.4,1,0.7,1.7,0.7c0.4,0,0.7-0.1,1-0.2c0.3-0.1,0.6-0.3,0.8-0.5c0.2-0.2,0.4-0.5,0.5-0.8
		s0.2-0.7,0.2-1.1v-4.7h1.2v8.3h-1.2v-1.4c-0.3,0.4-0.6,0.8-1.1,1.1C265.8,168,265.2,168.2,264.5,168.2z"/>
	<path fill="#B3B3B3" d="M274,168.2c-0.6,0-1.2-0.1-1.8-0.3c-0.6-0.2-1.1-0.5-1.6-0.9l0.6-0.9c0.4,0.3,0.9,0.6,1.4,0.8
		s1,0.3,1.5,0.3c0.5,0,0.9-0.1,1.2-0.4c0.3-0.2,0.5-0.6,0.5-1v0c0-0.2-0.1-0.4-0.2-0.5c-0.1-0.1-0.3-0.3-0.5-0.4
		c-0.2-0.1-0.4-0.2-0.7-0.3c-0.3-0.1-0.5-0.2-0.8-0.2c-0.3-0.1-0.6-0.2-1-0.3c-0.3-0.1-0.6-0.3-0.9-0.4c-0.3-0.2-0.5-0.4-0.6-0.6
		c-0.2-0.3-0.2-0.6-0.2-1v0c0-0.4,0.1-0.7,0.2-1c0.1-0.3,0.3-0.5,0.6-0.8s0.5-0.4,0.9-0.5s0.7-0.2,1.1-0.2c0.5,0,1,0.1,1.6,0.2
		c0.5,0.2,1,0.4,1.4,0.7l-0.6,0.9c-0.4-0.2-0.8-0.4-1.2-0.6s-0.8-0.2-1.2-0.2c-0.5,0-0.9,0.1-1.2,0.3c-0.3,0.2-0.4,0.5-0.4,0.9v0
		c0,0.2,0.1,0.4,0.2,0.5c0.1,0.1,0.3,0.3,0.5,0.4c0.2,0.1,0.4,0.2,0.7,0.3c0.3,0.1,0.5,0.2,0.8,0.3c0.3,0.1,0.6,0.2,1,0.3
		c0.3,0.1,0.6,0.3,0.9,0.4c0.3,0.2,0.5,0.4,0.6,0.7c0.2,0.3,0.2,0.6,0.2,0.9v0c0,0.4-0.1,0.7-0.2,1c-0.2,0.3-0.4,0.6-0.6,0.8
		c-0.3,0.2-0.6,0.4-0.9,0.5C274.8,168.1,274.4,168.2,274,168.2z"/>
	<path fill="#B3B3B3" d="M281.9,168.1c-0.3,0-0.6,0-0.9-0.1c-0.3-0.1-0.5-0.2-0.7-0.4c-0.2-0.2-0.4-0.4-0.5-0.7s-0.2-0.7-0.2-1.1v-5
		h-1.2v-1.1h1.2v-2.5h1.2v2.5h2.6v1.1h-2.6v4.8c0,0.5,0.1,0.9,0.4,1.1c0.3,0.2,0.6,0.3,1,0.3c0.2,0,0.4,0,0.6-0.1
		c0.2,0,0.4-0.1,0.6-0.2v1.1c-0.2,0.1-0.4,0.2-0.7,0.3C282.4,168.1,282.2,168.1,281.9,168.1z"/>
	<path fill="#B3B3B3" d="M288,168.2c-0.4,0-0.8-0.1-1.1-0.2c-0.4-0.1-0.7-0.3-1-0.5c-0.3-0.2-0.5-0.5-0.7-0.8
		c-0.2-0.3-0.3-0.7-0.3-1.1v0c0-0.4,0.1-0.8,0.3-1.2c0.2-0.3,0.4-0.6,0.7-0.8s0.7-0.4,1.1-0.5c0.4-0.1,0.9-0.2,1.4-0.2
		c0.5,0,1,0,1.4,0.1c0.4,0.1,0.8,0.1,1.2,0.3V163c0-0.7-0.2-1.3-0.6-1.7c-0.4-0.4-1-0.6-1.8-0.6c-0.5,0-0.9,0.1-1.3,0.2
		c-0.4,0.1-0.8,0.3-1.2,0.4l-0.4-1c0.5-0.2,0.9-0.4,1.4-0.5s1-0.2,1.6-0.2c1.2,0,2.1,0.3,2.7,0.9c0.6,0.6,0.8,1.4,0.8,2.4v5.1H291
		v-1.2c-0.3,0.4-0.7,0.7-1.2,1S288.7,168.2,288,168.2z M288.3,167.2c0.4,0,0.7-0.1,1.1-0.2c0.3-0.1,0.6-0.3,0.9-0.5
		c0.2-0.2,0.4-0.4,0.6-0.7c0.1-0.3,0.2-0.6,0.2-0.9v-0.8c-0.3-0.1-0.7-0.2-1.1-0.2c-0.4-0.1-0.9-0.1-1.4-0.1c-0.8,0-1.4,0.2-1.8,0.5
		c-0.4,0.3-0.6,0.7-0.6,1.2v0c0,0.3,0.1,0.5,0.2,0.7c0.1,0.2,0.3,0.4,0.5,0.5c0.2,0.1,0.4,0.2,0.7,0.3
		C287.7,167.2,288,167.2,288.3,167.2z"/>
	<path fill="#B3B3B3" d="M293.7,159.7h1.4l2.8,6.9l2.8-6.9h1.3l-3.6,8.3h-1.1L293.7,159.7z"/>
	<path fill="#B3B3B3" d="M307.2,168.2c-0.6,0-1.2-0.1-1.7-0.3c-0.5-0.2-1-0.5-1.4-0.9c-0.4-0.4-0.7-0.8-0.9-1.4
		c-0.2-0.5-0.3-1.1-0.3-1.7v0c0-0.6,0.1-1.1,0.3-1.7c0.2-0.5,0.5-1,0.9-1.4s0.8-0.7,1.4-0.9c0.5-0.2,1.1-0.3,1.7-0.3
		c0.6,0,1.2,0.1,1.7,0.3c0.5,0.2,1,0.5,1.4,0.9c0.4,0.4,0.7,0.8,0.9,1.4c0.2,0.5,0.3,1.1,0.3,1.7v0c0,0.6-0.1,1.1-0.3,1.7
		c-0.2,0.5-0.5,1-0.9,1.4s-0.8,0.7-1.4,0.9C308.4,168.1,307.8,168.2,307.2,168.2z M307.2,167.1c0.4,0,0.9-0.1,1.2-0.3
		c0.4-0.2,0.7-0.4,1-0.7s0.5-0.6,0.6-1c0.1-0.4,0.2-0.8,0.2-1.2v0c0-0.4-0.1-0.9-0.2-1.3c-0.2-0.4-0.4-0.7-0.6-1
		c-0.3-0.3-0.6-0.5-1-0.7c-0.4-0.2-0.8-0.3-1.2-0.3c-0.4,0-0.9,0.1-1.2,0.3c-0.4,0.2-0.7,0.4-1,0.7s-0.5,0.6-0.6,1
		c-0.2,0.4-0.2,0.8-0.2,1.2v0c0,0.4,0.1,0.9,0.2,1.3c0.2,0.4,0.4,0.7,0.6,1s0.6,0.5,1,0.7C306.4,167,306.8,167.1,307.2,167.1z"/>
	<path fill="#B3B3B3" d="M323.9,168.2c-0.8,0-1.6-0.1-2.2-0.4c-0.7-0.3-1.3-0.7-1.8-1.2c-0.5-0.5-0.9-1.1-1.2-1.8
		c-0.3-0.7-0.4-1.5-0.4-2.3v0c0-0.8,0.1-1.5,0.4-2.2c0.3-0.7,0.7-1.3,1.2-1.8c0.5-0.5,1.1-0.9,1.8-1.2s1.5-0.5,2.3-0.5
		c0.5,0,1,0,1.4,0.1c0.4,0.1,0.8,0.2,1.1,0.4c0.4,0.2,0.7,0.3,1,0.6c0.3,0.2,0.6,0.5,0.9,0.7l-0.9,0.9c-0.5-0.4-1-0.8-1.5-1.1
		s-1.2-0.4-2-0.4c-0.6,0-1.2,0.1-1.7,0.4c-0.5,0.2-1,0.6-1.4,1c-0.4,0.4-0.7,0.9-0.9,1.5c-0.2,0.6-0.3,1.2-0.3,1.8v0
		c0,0.7,0.1,1.3,0.3,1.8c0.2,0.6,0.5,1,0.9,1.5c0.4,0.4,0.8,0.7,1.4,1c0.5,0.2,1.1,0.4,1.7,0.4c0.8,0,1.4-0.1,2-0.4
		c0.6-0.3,1.1-0.7,1.6-1.2l0.8,0.8c-0.3,0.3-0.6,0.6-0.9,0.8c-0.3,0.2-0.7,0.4-1,0.6c-0.4,0.2-0.8,0.3-1.2,0.4
		C324.8,168.1,324.4,168.2,323.9,168.2z"/>
	<path fill="#B3B3B3" d="M330.3,159.7h1.2v2.2c0.1-0.3,0.3-0.7,0.6-0.9s0.5-0.5,0.8-0.7c0.3-0.2,0.6-0.4,0.9-0.5
		c0.3-0.1,0.7-0.2,1.1-0.1v1.3h-0.1c-0.4,0-0.9,0.1-1.3,0.2c-0.4,0.2-0.8,0.4-1,0.7c-0.3,0.3-0.5,0.7-0.7,1.2
		c-0.2,0.5-0.3,1-0.3,1.6v3.3h-1.2V159.7z"/>
	<path fill="#B3B3B3" d="M338.9,168.2c-0.4,0-0.8-0.1-1.1-0.2c-0.4-0.1-0.7-0.3-1-0.5c-0.3-0.2-0.5-0.5-0.7-0.8
		c-0.2-0.3-0.3-0.7-0.3-1.1v0c0-0.4,0.1-0.8,0.3-1.2s0.4-0.6,0.7-0.8s0.7-0.4,1.1-0.5c0.4-0.1,0.9-0.2,1.4-0.2c0.5,0,1,0,1.4,0.1
		c0.4,0.1,0.8,0.1,1.2,0.3V163c0-0.7-0.2-1.3-0.6-1.7c-0.4-0.4-1-0.6-1.8-0.6c-0.5,0-0.9,0.1-1.3,0.2c-0.4,0.1-0.8,0.3-1.2,0.4
		l-0.4-1c0.5-0.2,0.9-0.4,1.4-0.5s1-0.2,1.6-0.2c1.2,0,2.1,0.3,2.7,0.9c0.6,0.6,0.8,1.4,0.8,2.4v5.1h-1.2v-1.2
		c-0.3,0.4-0.7,0.7-1.2,1S339.6,168.2,338.9,168.2z M339.1,167.2c0.4,0,0.7-0.1,1.1-0.2c0.3-0.1,0.6-0.3,0.9-0.5
		c0.2-0.2,0.4-0.4,0.6-0.7c0.1-0.3,0.2-0.6,0.2-0.9v-0.8c-0.3-0.1-0.7-0.2-1.1-0.2c-0.4-0.1-0.9-0.1-1.4-0.1c-0.8,0-1.4,0.2-1.8,0.5
		c-0.4,0.3-0.6,0.7-0.6,1.2v0c0,0.3,0.1,0.5,0.2,0.7c0.1,0.2,0.3,0.4,0.5,0.5s0.4,0.2,0.7,0.3C338.6,167.2,338.9,167.2,339.1,167.2z
		"/>
	<path fill="#B3B3B3" d="M345.7,159.7h1.2v1.4c0.1-0.2,0.3-0.4,0.5-0.6c0.2-0.2,0.4-0.4,0.6-0.5s0.5-0.3,0.7-0.3
		c0.3-0.1,0.6-0.1,0.9-0.1c0.7,0,1.2,0.2,1.7,0.5c0.4,0.3,0.8,0.7,1,1.2c0.1-0.2,0.3-0.4,0.5-0.6c0.2-0.2,0.4-0.4,0.6-0.5
		c0.2-0.1,0.5-0.3,0.8-0.4c0.3-0.1,0.6-0.1,1-0.1c1,0,1.7,0.3,2.3,0.9c0.5,0.6,0.8,1.4,0.8,2.4v5.1H357v-4.8c0-0.8-0.2-1.4-0.6-1.9
		c-0.4-0.4-0.9-0.6-1.6-0.6c-0.3,0-0.6,0.1-0.9,0.2c-0.3,0.1-0.5,0.3-0.7,0.5c-0.2,0.2-0.4,0.5-0.5,0.8s-0.2,0.7-0.2,1.1v4.8h-1.2
		v-4.9c0-0.8-0.2-1.4-0.6-1.8c-0.4-0.4-0.9-0.6-1.6-0.6c-0.3,0-0.6,0.1-0.9,0.2c-0.3,0.1-0.5,0.3-0.7,0.5c-0.2,0.2-0.4,0.5-0.5,0.8
		s-0.2,0.7-0.2,1v4.7h-1.2V159.7z"/>
	<path fill="#B3B3B3" d="M364.5,168.2c-0.6,0-1.1-0.1-1.6-0.3c-0.5-0.2-0.9-0.5-1.3-0.9c-0.4-0.4-0.7-0.8-0.9-1.4
		c-0.2-0.5-0.3-1.1-0.3-1.8v0c0-0.6,0.1-1.2,0.3-1.7c0.2-0.5,0.5-1,0.8-1.4c0.4-0.4,0.8-0.7,1.3-0.9c0.5-0.2,1-0.3,1.6-0.3
		c0.6,0,1.2,0.1,1.6,0.3c0.5,0.2,0.9,0.5,1.2,0.9c0.3,0.4,0.6,0.9,0.8,1.4c0.2,0.5,0.3,1.1,0.3,1.7c0,0.1,0,0.2,0,0.2
		c0,0.1,0,0.1,0,0.2h-6.6c0,0.4,0.1,0.8,0.3,1.2s0.4,0.6,0.6,0.9c0.3,0.2,0.6,0.4,0.9,0.5c0.3,0.1,0.7,0.2,1.1,0.2
		c0.6,0,1.1-0.1,1.5-0.3c0.4-0.2,0.8-0.5,1.1-0.8l0.8,0.7c-0.4,0.5-0.9,0.8-1.4,1.1C366,168.1,365.3,168.2,364.5,168.2z M367,163.4
		c0-0.4-0.1-0.7-0.2-1.1c-0.1-0.3-0.3-0.6-0.5-0.9s-0.5-0.5-0.8-0.6c-0.3-0.2-0.7-0.2-1.1-0.2c-0.4,0-0.7,0.1-1,0.2
		s-0.6,0.3-0.8,0.6c-0.2,0.3-0.4,0.5-0.6,0.9s-0.2,0.7-0.3,1.1H367z"/>
	<path fill="#B3B3B3" d="M369.7,167.2l5.5-6.4h-5.3v-1h7v0.8l-5.5,6.4h5.5v1h-7.2V167.2z"/>
</g>
</svg>
